<svg width="207" height="30" viewBox="0 0 207 30" fill="none" xmlns="http://www.w3.org/2000/svg">
<path d="M35.4283 3.53955H12.4045C6.04586 3.53955 0.892578 8.69283 0.892578 15.0515C0.892578 21.4101 6.04586 26.5634 12.4045 26.5634H35.4283C41.7869 26.5634 46.9402 21.4101 46.9402 15.0515C46.9402 8.69283 41.7869 3.53955 35.4283 3.53955ZM35.4283 22.1481H12.4045C8.48275 22.1481 5.3078 18.9688 5.3078 15.0515C5.3078 11.1341 8.48712 7.95478 12.4045 7.95478H35.4283C39.35 7.95478 42.525 11.1341 42.525 15.0515C42.525 18.9688 39.3457 22.1481 35.4283 22.1481Z" fill="#191919"/>
<path d="M39.656 15.4312V14.846C37.4856 14.846 35.7212 13.086 35.7212 10.9111H35.136C35.136 13.0816 33.376 14.846 31.2012 14.846V15.4312C33.3717 15.4312 35.136 17.1911 35.136 19.366H35.7212C35.7212 17.1955 37.4812 15.4312 39.656 15.4312Z" fill="#191919"/>
<path d="M79.2535 15.0427C79.2535 22.2136 74.0827 26.5589 66.0034 26.5589H54.6182V3.53076H66.0034C74.0827 3.53076 79.2535 7.87175 79.2535 15.047V15.0427ZM74.2661 15.0427C74.2661 10.3043 70.7768 8.00276 65.6366 8.00276H59.5182V22.0869H65.6366C70.7768 22.0869 74.2661 19.7854 74.2661 15.047V15.0427Z" fill="#191919"/>
<path d="M100.949 15.7674V22.4448C100.949 23.7593 101.163 24.8467 101.714 25.8992H96.8486C96.4818 25.2398 96.2372 24.4188 96.2372 23.7593V23.7244C94.9532 25.2398 92.4727 26.5543 89.2279 26.5543C85.6162 26.5543 80.9346 25.0083 80.9346 20.3049C80.9346 15.6014 85.6162 14.086 89.2279 14.086C92.4727 14.086 94.9489 15.3699 96.2372 16.9159V15.7324C96.2372 12.3784 94.1846 10.9285 90.1493 10.9285C87.8566 10.9285 86.018 11.2561 84.0003 12.4439L82.5941 9.08557C84.7952 7.86712 88.1011 7.07666 91.1014 7.07666C97.2504 7.07666 100.954 10.1381 100.954 15.763L100.949 15.7674ZM96.3289 20.0778C95.0755 17.9379 92.5644 17.4138 90.3939 17.4138C88.433 17.4138 85.5594 17.9073 85.5594 20.3092C85.5594 22.7112 88.433 23.2352 90.3939 23.2352C92.5688 23.2352 95.0755 22.6762 96.3289 20.5363V20.0778Z" fill="#191919"/>
<path d="M117.698 24.8164C116.257 25.8689 114.147 26.5589 112.16 26.5589C108.61 26.5589 105.854 24.4845 105.854 20.4055V11.5576H102.731V7.7407H105.854V3.52637H110.597V7.7407H117.545V11.5576H110.597V19.519C110.597 21.362 111.881 22.314 113.566 22.314C114.728 22.314 115.767 21.8554 116.72 21.362L117.698 24.8164Z" fill="#191919"/>
<path d="M138.821 15.7674V22.4448C138.821 23.7593 139.035 24.8467 139.586 25.8992H134.721C134.354 25.2398 134.109 24.4188 134.109 23.7593V23.7244C132.825 25.2398 130.345 26.5543 127.1 26.5543C123.488 26.5543 118.807 25.0083 118.807 20.3049C118.807 15.6014 123.488 14.086 127.1 14.086C130.345 14.086 132.825 15.3699 134.109 16.9159V15.7324C134.109 12.3784 132.057 10.9285 128.021 10.9285C125.724 10.9285 123.89 11.2561 121.868 12.4439L120.462 9.08557C122.663 7.86712 125.969 7.07666 128.969 7.07666C135.118 7.07666 138.821 10.1381 138.821 15.763V15.7674ZM134.201 20.0778C132.948 17.9379 130.436 17.4138 128.262 17.4138C126.305 17.4138 123.427 17.9073 123.427 20.3092C123.427 22.7112 126.305 23.2352 128.262 23.2352C130.436 23.2352 132.943 22.6762 134.201 20.5363V20.0778Z" fill="#191919"/>
<path d="M142.652 26.5588V8.43064H147.395V12.1821C148.771 9.45257 151.679 8.0376 154.924 8.0376V12.4135C151.251 12.4135 148.404 13.9595 147.395 17.1519V26.5632H142.652V26.5588Z" fill="#191919"/>
<path d="M156.841 3.69223C156.841 2.14624 158.033 1.09375 159.714 1.09375C161.396 1.09375 162.531 2.14624 162.531 3.69223C162.531 5.23821 161.37 6.26013 159.714 6.26013C158.059 6.26013 156.841 5.1727 156.841 3.69223ZM162.134 26.5588H157.391V8.43062H162.134V26.5588Z" fill="#191919"/>
<path d="M183.28 11.5881L171.528 22.707H183.647V26.5894H164.951V23.397L176.703 12.2781H165.379V8.42627H183.28V11.5837V11.5881Z" fill="#191919"/>
<path d="M196.464 22.7113C199.373 22.7113 201.207 21.8903 202.954 20.3748L205.495 23.3707C203.137 25.6067 200.111 26.5937 196.224 26.5937C189.276 26.5937 185.267 22.8423 185.267 16.82C185.267 10.7976 189.245 7.01562 195.888 7.01562C202.006 7.01562 206.107 10.3696 206.107 16.7894C206.107 17.3833 206.076 17.6759 205.985 17.9729H189.826C190.254 21.2308 192.551 22.7113 196.464 22.7113ZM190.036 14.715L201.574 14.6495C200.84 12.051 198.91 10.8981 195.914 10.8981C192.918 10.8981 190.712 12.1471 190.036 14.715Z" fill="#191919"/>
</svg>
